<svg xmlns="http://www.w3.org/2000/svg" viewBox="0 0 640 260" role="img" aria-label="Podcast studio">
  <defs>
    <linearGradient id="studio" x1="0" y1="0" x2="1" y2="1">
      <stop offset="0" stop-color="#576171"/>
      <stop offset=".55" stop-color="#252d39"/>
      <stop offset="1" stop-color="#101720"/>
    </linearGradient>
  </defs>
  <rect width="640" height="260" fill="url(#studio)"/>
  <circle cx="162" cy="90" r="58" fill="#d69f79"/>
  <path d="M84 260c12-100 43-152 78-152s66 52 78 152z" fill="#161d28"/>
  <rect x="130" y="54" width="64" height="86" rx="30" fill="none" stroke="#f2f5f8" stroke-width="12"/>
  <circle cx="462" cy="132" r="76" fill="#f7fafc" opacity=".95"/>
  <rect x="434" y="64" width="56" height="130" rx="28" fill="#d7192a"/>
  <rect x="417" y="124" width="90" height="18" rx="9" fill="#252b35"/>
  <path d="M462 192v34M410 226h104" stroke="#252b35" stroke-width="14" stroke-linecap="round"/>
  <g opacity=".33" fill="#ffffff">
    <rect x="270" y="52" width="18" height="120" rx="9"/>
    <rect x="306" y="82" width="18" height="90" rx="9"/>
    <rect x="342" y="34" width="18" height="138" rx="9"/>
    <rect x="378" y="72" width="18" height="100" rx="9"/>
  </g>
</svg>
