<svg xmlns="http://www.w3.org/2000/svg" viewBox="0 0 520 680" role="img" aria-label="Business visitors talking">
  <defs>
    <linearGradient id="office" x1="0" y1="0" x2="1" y2="1">
      <stop offset="0" stop-color="#f4f6f9"/>
      <stop offset=".52" stop-color="#c9d1dc"/>
      <stop offset="1" stop-color="#5b6674"/>
    </linearGradient>
    <linearGradient id="suitA" x1="0" y1="0" x2="1" y2="1">
      <stop offset="0" stop-color="#2f3948"/>
      <stop offset="1" stop-color="#111821"/>
    </linearGradient>
    <linearGradient id="suitB" x1="0" y1="0" x2="1" y2="1">
      <stop offset="0" stop-color="#485363"/>
      <stop offset="1" stop-color="#232c38"/>
    </linearGradient>
  </defs>
  <rect width="520" height="680" fill="url(#office)"/>
  <rect y="445" width="520" height="235" fill="#202733" opacity=".18"/>
  <g opacity=".28">
    <rect x="46" y="54" width="128" height="18" fill="#ffffff"/>
    <rect x="46" y="94" width="212" height="12" fill="#ffffff"/>
    <rect x="302" y="70" width="160" height="12" fill="#ffffff"/>
  </g>
  <g transform="translate(35 118)">
    <ellipse cx="235" cy="435" rx="210" ry="32" fill="#111721" opacity=".18"/>
    <g transform="translate(0 44)">
      <circle cx="142" cy="104" r="67" fill="#d4a07a"/>
      <path d="M52 450c13-176 49-274 90-274s77 98 90 274z" fill="url(#suitA)"/>
      <path d="M94 190l48 86 48-86" fill="#ffffff"/>
      <rect x="126" y="212" width="32" height="150" fill="#d7192a"/>
      <path d="M206 304c44 12 82 6 114-20" fill="none" stroke="#d2a17c" stroke-width="24" stroke-linecap="round"/>
    </g>
    <g transform="translate(210 0)">
      <circle cx="142" cy="104" r="67" fill="#c58d6e"/>
      <path d="M52 494c13-176 49-274 90-274s77 98 90 274z" fill="url(#suitB)"/>
      <path d="M94 234l48 80 48-80" fill="#ffffff"/>
      <rect x="126" y="252" width="32" height="148" fill="#d7192a"/>
      <path d="M72 346c-42 9-80 2-118-23" fill="none" stroke="#c58d6e" stroke-width="23" stroke-linecap="round"/>
    </g>
    <g transform="translate(150 286)">
      <rect x="0" y="0" width="160" height="84" rx="12" fill="#ffffff" opacity=".96"/>
      <rect x="20" y="22" width="112" height="10" fill="#d7192a"/>
      <rect x="20" y="46" width="86" height="8" fill="#9da8b7"/>
    </g>
  </g>
  <path d="M0 578c80-24 167-19 262 10 102 32 189 29 258-6v98H0z" fill="#d7192a" opacity=".18"/>
</svg>
