<svg xmlns="http://www.w3.org/2000/svg" viewBox="0 0 1600 650" role="img" aria-label="Business presentation audience">
  <defs>
    <linearGradient id="room" x1="0" y1="0" x2="1" y2="1">
      <stop offset="0" stop-color="#f5f7fa"/>
      <stop offset=".48" stop-color="#9da9b8"/>
      <stop offset="1" stop-color="#2c3441"/>
    </linearGradient>
    <linearGradient id="stage" x1="0" y1="0" x2="0" y2="1">
      <stop offset="0" stop-color="#394250"/>
      <stop offset="1" stop-color="#171d27"/>
    </linearGradient>
    <linearGradient id="person" x1="0" y1="0" x2="1" y2="1">
      <stop offset="0" stop-color="#384252"/>
      <stop offset="1" stop-color="#141a24"/>
    </linearGradient>
  </defs>
  <rect width="1600" height="650" fill="url(#room)"/>
  <rect y="320" width="1600" height="330" fill="url(#stage)"/>
  <g opacity=".18">
    <rect x="80" y="54" width="250" height="18" fill="#fff"/>
    <rect x="1140" y="62" width="340" height="18" fill="#fff"/>
    <rect x="1190" y="102" width="230" height="14" fill="#fff"/>
  </g>
  <g transform="translate(620 78)">
    <rect x="0" y="0" width="600" height="285" rx="12" fill="#f8fafc"/>
    <rect x="40" y="48" width="322" height="20" fill="#d7192a"/>
    <rect x="40" y="94" width="456" height="16" fill="#aeb8c6"/>
    <rect x="40" y="132" width="390" height="16" fill="#aeb8c6"/>
    <g transform="translate(42 184)">
      <rect width="120" height="54" rx="7" fill="#d7192a"/>
      <rect x="150" width="120" height="54" rx="7" fill="#252b35"/>
      <rect x="300" width="120" height="54" rx="7" fill="#687486"/>
    </g>
  </g>
  <g transform="translate(205 118)">
    <rect x="44" y="156" width="112" height="178" rx="24" fill="url(#person)"/>
    <circle cx="100" cy="100" r="58" fill="#d6a17c"/>
    <path d="M52 174l48 72 48-72" fill="#fff"/>
    <rect x="86" y="190" width="28" height="112" fill="#d7192a"/>
    <path d="M144 222c88 24 158 8 224-44" fill="none" stroke="#f2f5f9" stroke-width="16" stroke-linecap="round"/>
    <circle cx="376" cy="172" r="15" fill="#d7192a"/>
  </g>
  <g transform="translate(62 392)">
    <g opacity=".96">
      <ellipse cx="95" cy="186" rx="82" ry="22" fill="#0b1017" opacity=".35"/>
      <circle cx="95" cy="62" r="42" fill="#c88f6d"/>
      <path d="M38 198c9-76 31-118 57-118s48 42 57 118z" fill="#1d2532"/>
    </g>
    <g transform="translate(158 28)" opacity=".96">
      <ellipse cx="95" cy="186" rx="82" ry="22" fill="#0b1017" opacity=".35"/>
      <circle cx="95" cy="62" r="42" fill="#dda982"/>
      <path d="M38 198c9-76 31-118 57-118s48 42 57 118z" fill="#2f3846"/>
    </g>
    <g transform="translate(316 0)" opacity=".96">
      <ellipse cx="95" cy="186" rx="82" ry="22" fill="#0b1017" opacity=".35"/>
      <circle cx="95" cy="62" r="42" fill="#c98e6e"/>
      <path d="M38 198c9-76 31-118 57-118s48 42 57 118z" fill="#1c2431"/>
    </g>
    <g transform="translate(474 34)" opacity=".96">
      <ellipse cx="95" cy="186" rx="82" ry="22" fill="#0b1017" opacity=".35"/>
      <circle cx="95" cy="62" r="42" fill="#d6a17b"/>
      <path d="M38 198c9-76 31-118 57-118s48 42 57 118z" fill="#293443"/>
    </g>
    <g transform="translate(632 8)" opacity=".96">
      <ellipse cx="95" cy="186" rx="82" ry="22" fill="#0b1017" opacity=".35"/>
      <circle cx="95" cy="62" r="42" fill="#bc8267"/>
      <path d="M38 198c9-76 31-118 57-118s48 42 57 118z" fill="#202937"/>
    </g>
    <g transform="translate(790 32)" opacity=".96">
      <ellipse cx="95" cy="186" rx="82" ry="22" fill="#0b1017" opacity=".35"/>
      <circle cx="95" cy="62" r="42" fill="#e0ad86"/>
      <path d="M38 198c9-76 31-118 57-118s48 42 57 118z" fill="#333c4c"/>
    </g>
    <g transform="translate(948 0)" opacity=".96">
      <ellipse cx="95" cy="186" rx="82" ry="22" fill="#0b1017" opacity=".35"/>
      <circle cx="95" cy="62" r="42" fill="#c99170"/>
      <path d="M38 198c9-76 31-118 57-118s48 42 57 118z" fill="#1b2330"/>
    </g>
    <g transform="translate(1106 26)" opacity=".96">
      <ellipse cx="95" cy="186" rx="82" ry="22" fill="#0b1017" opacity=".35"/>
      <circle cx="95" cy="62" r="42" fill="#d3a07d"/>
      <path d="M38 198c9-76 31-118 57-118s48 42 57 118z" fill="#2a3442"/>
    </g>
  </g>
  <path d="M0 520c226-70 475-66 748 12 296 84 572 83 852-2v120H0z" fill="#0f151e" opacity=".45"/>
</svg>
