<svg xmlns="http://www.w3.org/2000/svg" viewBox="0 0 1600 650" role="img" aria-label="商務交流會議">
  <defs>
    <linearGradient id="bg" x1="0" y1="0" x2="1" y2="1">
      <stop offset="0" stop-color="#394250"/>
      <stop offset="1" stop-color="#747f90"/>
    </linearGradient>
  </defs>
  <rect width="1600" height="650" fill="url(#bg)"/>
  <rect y="470" width="1600" height="180" fill="#252b35" opacity=".42"/>
  <g opacity=".16" fill="#fff">
    <circle cx="250" cy="150" r="96"/>
    <circle cx="460" cy="140" r="72"/>
    <circle cx="1310" cy="175" r="112"/>
    <circle cx="1120" cy="130" r="64"/>
  </g>
  <g transform="translate(170 220)">
    <rect x="0" y="140" width="1260" height="96" rx="18" fill="#ffffff" opacity=".22"/>
    <g fill="#ffffff" opacity=".9">
      <circle cx="125" cy="70" r="54"/>
      <rect x="65" y="130" width="120" height="145" rx="58"/>
      <circle cx="360" cy="58" r="50"/>
      <rect x="304" y="122" width="112" height="152" rx="54"/>
      <circle cx="595" cy="72" r="55"/>
      <rect x="533" y="134" width="124" height="142" rx="60"/>
      <circle cx="830" cy="58" r="50"/>
      <rect x="774" y="122" width="112" height="152" rx="54"/>
      <circle cx="1065" cy="70" r="54"/>
      <rect x="1005" y="130" width="120" height="145" rx="58"/>
    </g>
    <g stroke="#d7192a" stroke-width="10" opacity=".88">
      <path d="M180 115 C240 55 285 55 330 103" fill="none"/>
      <path d="M650 115 C710 55 755 55 800 103" fill="none"/>
      <path d="M890 115 C950 55 995 55 1040 103" fill="none"/>
    </g>
  </g>
</svg>
